<?xml version="1.0" encoding="utf-8"?>
<svg viewBox="0 0 400 600" xmlns="http://www.w3.org/2000/svg">
  <defs>
    <linearGradient gradientUnits="userSpaceOnUse" x1="351.953" y1="179.377" x2="351.953" y2="560.36" id="gradient-0">
      <stop offset="0" style="stop-color: rgba(249, 204, 185, 1)"/>
      <stop offset="1" style="stop-color: rgba(241, 136, 91, 1)"/>
    </linearGradient>
    <linearGradient gradientUnits="userSpaceOnUse" x1="2563" y1="2828" x2="2563" y2="4847.686" id="gradient-1">
      <stop offset="0" style="stop-color: rgba(163, 232, 249, 1)"/>
      <stop offset="1" style="stop-color: rgba(67, 208, 243, 1)"/>
    </linearGradient>
    <linearGradient gradientUnits="userSpaceOnUse" x1="3622" y1="1330" x2="3622" y2="3788.75" id="gradient-3">
      <stop offset="0" style="stop-color: rgba(249, 235, 143, 1)"/>
      <stop offset="1" style="stop-color: rgba(244, 217, 46, 1)"/>
    </linearGradient>
    <linearGradient gradientUnits="userSpaceOnUse" x1="747.5" y1="2080.289" x2="747.5" y2="3038.024" id="gradient-4">
      <stop offset="0" style="stop-color: rgba(96, 113, 219, 1)"/>
      <stop offset="1" style="stop-color: rgba(39, 57, 174, 1)"/>
    </linearGradient>
    <linearGradient gradientUnits="userSpaceOnUse" x1="2560" y1="275" x2="2560" y2="2287.686" id="gradient-2">
      <stop offset="0" style="stop-color: rgba(243, 126, 90, 1)"/>
      <stop offset="1" style="stop-color: rgba(215, 62, 16, 1)"/>
    </linearGradient>
  </defs>
  <g transform="matrix(1, 0, 0, 1, -153.34285, 18.412622)">
    <path d="M 523.34 401.23 C 517.957 395.828 511.117 392.101 503.652 390.511 C 506.433 380.476 504.679 369.726 498.859 361.093 C 493.035 352.46 483.726 346.808 473.379 345.624 C 474.801 341.694 475.539 337.554 475.567 333.374 C 475.59 324.249 472.445 315.401 466.668 308.339 C 460.891 301.277 452.84 296.441 443.891 294.655 L 491.36 247.01 C 498.884 239.514 503.079 229.307 503.001 218.682 C 502.927 208.061 498.583 197.916 490.954 190.526 C 483.325 183.139 473.044 179.124 462.427 179.389 C 451.806 179.651 441.739 184.17 434.486 191.928 C 382.466 247.448 317.806 310.628 292.296 320.988 C 277.421 327.113 273.835 322.343 262.327 303.488 C 254.335 288.715 243.722 275.523 231.003 264.55 C 215.866 252.257 198.058 251.905 183.315 263.589 C 166.604 276.933 164.198 299.597 177.495 318.671 C 204.972 358.046 204.753 375.808 204.577 393.046 C 203.264 518.166 290.108 556.886 341.687 559.996 C 345.624 560.215 349.429 560.348 353.238 560.348 C 377.09 560.629 400.73 555.852 422.601 546.325 C 444.472 536.801 464.074 522.747 480.113 505.091 L 508.769 473.505 L 509.249 472.934 L 523.468 457.227 C 530.855 449.774 534.991 439.696 534.964 429.2 C 534.941 418.704 530.761 408.649 523.335 401.227 L 523.34 401.23 Z M 479.013 493.374 L 466.508 493.895 L 466.512 493.895 C 434.778 528.055 389.239 545.938 342.742 542.5 C 320.199 540.546 312.898 529.425 293.972 517.023 L 275.906 530.675 L 288.607 524.093 C 310.482 522.694 329.308 505.969 347.16 481.25 C 349.84 477.324 348.895 471.976 345.031 469.207 C 341.168 466.437 335.801 467.257 332.941 471.054 C 318.371 491.355 302.753 502.202 286.48 503.296 C 263.773 504.785 246.316 486.628 246.054 486.366 C 245.668 485.964 256.015 493.261 255.558 492.936 C 241.863 471.323 262.876 440.879 263.314 399.882 C 263.576 376.737 220.285 348.947 191.891 308.346 C 185.328 298.897 250.104 415.583 260.823 407.009 C 269.222 400.361 263.133 424.409 272.059 431.627 C 283.196 441.338 256.874 376.276 263.847 389.3 C 267.882 396.941 268.589 419.345 274.566 425.583 C 274.73 425.826 285.192 397.252 285.376 397.475 C 286.118 398.264 280.529 352.929 263.466 379.574 C 261.079 383.632 257.408 513.327 261.381 515.862 C 265.354 518.393 329.698 429.165 333.499 426.379 C 398.991 378.373 351.383 340.909 346.7 324.472 C 351.032 323.879 275.726 377.942 279.754 376.238 C 314.184 362.105 202.491 519.602 235.651 484.216 C 239.721 479.826 254.199 508.604 260.184 508.525 C 266.176 508.432 443.875 269.127 448.117 273.361 C 452.273 277.506 480.831 235.179 480.831 241.05 C 480.831 246.917 483.089 230.711 478.933 234.856 L 389.859 323.754 C 382.55 331.027 311.277 467.148 311.277 477.461 C 311.277 487.774 378.233 429.832 385.542 437.106 L 385.081 421.334 C 391.109 427.377 397.415 441.297 405.879 442.375 C 402.778 455.211 413.37 416.532 422.671 425.911 L 448.059 418.458 L 399.903 420.218 L 213.239 420.448 C 220.337 427.483 290.557 535.709 300.55 535.678 C 299.339 547.002 376.034 539.843 384.105 547.878 L 447.028 519.654 C 452.09 524.705 462.237 501.486 469.21 503.068 L 479.013 493.374 Z" style="fill: url(#gradient-0);"/>
  </g>
  <g transform="matrix(0.054645, 0, 0, -0.054645, 3.336352, 283.444489)" fill="#000000" stroke="none">
    <path d="M1808 4836 c-99 -36 -175 -102 -225 -198 l-28 -53 0 -745 0 -745 28 -53 c40 -76 97 -134 169 -173 l63 -34 188 -3 187 -4 0 334 c0 367 4 398 62 518 48 99 162 209 269 259 46 22 111 44 143 50 37 7 222 11 483 11 l424 0 -3 293 -3 292 -34 63 c-39 71 -107 138 -178 173 l-48 24 -730 2 c-584 2 -737 0 -767 -11z" style="fill: url(#gradient-1);"/>
    <path d="M2700 3779 c-112 -22 -217 -107 -268 -217 l-27 -57 -3 -497 -3 -497 453 -3 c433 -4 456 -5 518 -26 184 -61 331 -209 392 -392 20 -60 22 -90 26 -412 l4 -348 347 0 c208 0 371 4 406 11 118 22 218 98 272 207 l28 57 0 955 0 955 -28 57 c-54 111 -152 185 -272 207 -72 13 -1777 13 -1845 0z" style="fill: url(#gradient-3);"/>
    <path d="M525 3020 c-111 -37 -194 -116 -235 -226 -17 -47 -20 -78 -20 -228 0 -195 10 -244 63 -323 47 -67 119 -119 200 -144 59 -19 87 -21 240 -17 172 3 173 3 239 36 83 40 158 119 190 200 21 52 23 72 23 242 0 170 -2 190 -23 242 -32 81 -107 160 -190 200 l-67 33 -180 2 c-157 3 -188 0 -240 -17z" style="fill: url(#gradient-4);"/>
    <path d="M1808 2276 c-99 -36 -175 -102 -225 -198 l-28 -53 0 -745 0 -745 28 -53 c40 -76 97 -134 169 -173 l63 -34 740 0 740 0 66 32 c79 39 140 102 177 181 l27 57 0 740 0 740 -34 63 c-39 71 -107 138 -178 173 l-48 24 -730 2 c-584 2 -737 0 -767 -11z" style="fill: url(#gradient-2);"/>
  </g>
</svg>