<?xml version="1.0" encoding="utf-8"?>
<svg viewBox="0 0 600 600" xmlns="http://www.w3.org/2000/svg">
  <defs>
    <linearGradient gradientUnits="userSpaceOnUse" x1="278.632" y1="14" x2="278.632" y2="545.998" id="gradient-4">
      <stop offset="0" style="stop-color: rgba(158, 215, 241, 1)"/>
      <stop offset="1" style="stop-color: rgba(69, 178, 228, 1)"/>
    </linearGradient>
    <linearGradient gradientUnits="userSpaceOnUse" x1="2563" y1="2828" x2="2563" y2="4847.686" id="gradient-1">
      <stop offset="0" style="stop-color: rgba(163, 232, 249, 1)"/>
      <stop offset="1" style="stop-color: rgba(67, 208, 243, 1)"/>
    </linearGradient>
    <linearGradient gradientUnits="userSpaceOnUse" x1="3622" y1="1330" x2="3622" y2="3788.75" id="gradient-3">
      <stop offset="0" style="stop-color: rgba(249, 235, 143, 1)"/>
      <stop offset="1" style="stop-color: rgba(244, 217, 46, 1)"/>
    </linearGradient>
    <linearGradient gradientUnits="userSpaceOnUse" x1="747.5" y1="2080.289" x2="747.5" y2="3038.024" id="gradient-0">
      <stop offset="0" style="stop-color: rgba(96, 113, 219, 1)"/>
      <stop offset="1" style="stop-color: rgba(39, 57, 174, 1)"/>
    </linearGradient>
    <linearGradient gradientUnits="userSpaceOnUse" x1="2560" y1="275" x2="2560" y2="2287.686" id="gradient-2">
      <stop offset="0" style="stop-color: rgba(243, 126, 90, 1)"/>
      <stop offset="1" style="stop-color: rgba(215, 62, 16, 1)"/>
    </linearGradient>
  </defs>
  <g transform="matrix(1, 0, 0, 1, 24.943211, 19.928837)">
    <path d="M 516.129 442.96 L 429.328 284.48 C 439.406 278.32 451.168 270.48 455.648 257.039 C 460.687 241.918 453.968 227.359 448.929 215.598 C 446.691 209.996 443.328 203.278 443.328 199.918 C 443.328 196.558 446.128 189.84 448.929 184.238 C 453.968 172.476 460.691 157.918 455.648 142.797 C 450.609 127.117 436.609 118.719 424.847 112.559 C 419.808 109.758 413.648 106.399 411.968 103.598 C 410.288 100.797 408.609 94.079 407.488 87.918 C 404.687 75.039 401.327 59.359 388.449 49.84 C 375.57 40.321 359.328 42 346.449 43.121 C 340.847 43.68 333.57 44.801 330.211 43.68 C 327.41 42.559 321.812 38.078 317.891 34.16 C 307.809 25.199 295.489 14 278.688 14 C 261.887 14 249.567 25.199 240.047 34.16 C 236.125 37.52 230.527 42.559 227.727 43.68 C 224.367 44.801 217.086 43.68 211.489 43.121 C 198.61 42 182.368 39.762 169.489 49.84 C 156.048 59.36 152.688 75.602 150.45 87.918 C 149.328 93.52 147.649 100.797 145.969 103.598 C 144.289 105.836 138.129 109.758 133.09 112.559 C 121.891 119.278 107.328 127.118 102.289 142.797 C 97.25 157.918 103.969 172.477 109.008 184.238 C 111.246 189.84 114.609 196.558 114.609 199.918 C 114.609 203.278 111.809 209.996 109.008 215.598 C 103.969 227.36 97.246 241.918 102.289 257.039 C 106.77 271.039 117.969 278.32 128.609 284.48 L 41.246 442.96 C 35.644 453.038 36.207 464.8 42.367 474.319 C 48.527 483.839 59.168 488.878 70.367 487.76 L 122.445 483.28 L 146.523 529.76 C 151.562 539.838 161.644 545.998 172.843 545.998 L 173.402 545.998 C 184.601 545.998 194.683 539.837 199.722 530.318 L 278.12 387.518 L 356.518 530.318 C 362.119 539.837 372.198 545.998 382.838 545.998 L 383.396 545.998 C 394.595 545.998 404.677 539.837 409.716 529.759 L 433.794 483.279 L 485.872 487.76 C 497.634 488.881 507.712 483.279 513.872 474.319 C 521.165 464.799 521.724 452.479 516.126 442.96 L 516.129 442.96 Z M 151.009 144.48 C 159.407 139.441 169.489 133.839 175.65 124.878 C 182.369 115.917 184.611 104.718 186.849 95.198 C 187.97 90.159 189.65 81.198 191.33 79.518 C 193.568 78.397 202.529 79.518 207.568 80.077 C 217.646 81.198 228.849 82.315 239.49 78.955 C 250.131 75.596 257.97 68.314 265.252 61.596 C 269.173 58.237 275.893 51.518 278.693 51.518 C 281.493 51.518 288.212 58.237 292.134 61.596 C 299.415 68.315 307.255 75.596 317.896 78.955 C 328.537 82.314 339.736 81.194 349.818 80.077 C 354.857 79.518 363.818 78.397 365.498 79.518 C 367.177 81.198 368.857 90.159 369.978 95.198 C 372.216 104.717 374.459 115.917 380.619 124.878 C 387.338 133.839 396.857 139.437 405.26 144.48 C 409.741 147.281 417.58 151.761 418.701 153.441 C 418.701 156.242 415.342 163.519 413.662 168.562 C 409.74 177.523 404.701 188.164 404.701 199.921 C 404.701 211.683 409.182 221.761 413.662 231.28 C 415.9 235.76 419.264 243.6 419.264 245.839 C 418.142 248.077 410.303 252.558 405.823 255.358 C 397.424 260.397 387.343 265.999 381.182 274.96 C 374.463 283.921 372.221 295.12 369.983 304.64 C 368.861 309.68 367.182 318.64 365.502 320.32 C 363.264 321.442 354.303 320.32 349.264 319.762 C 339.186 318.641 327.983 317.524 317.342 320.883 C 306.701 324.242 298.862 331.524 291.58 338.242 C 287.658 341.601 280.939 348.32 278.139 348.32 C 275.339 348.32 268.62 341.601 264.698 338.242 C 257.417 331.523 249.577 324.242 238.936 320.883 C 233.334 319.203 228.295 318.645 222.698 318.645 C 217.096 318.645 212.057 319.203 207.018 319.766 C 201.979 320.324 193.018 321.445 191.338 320.324 C 189.658 318.645 187.979 309.683 186.858 304.644 C 184.619 295.125 182.377 283.925 176.217 274.964 C 169.498 266.003 159.979 260.405 151.576 255.362 C 147.095 252.562 139.256 248.081 138.135 246.401 C 138.135 243.601 141.494 236.323 143.174 231.28 C 147.096 222.32 152.135 211.678 152.135 199.921 C 152.135 188.159 147.654 178.081 143.174 168.562 C 140.935 164.082 137.572 156.242 137.572 154.003 C 138.689 151.761 146.529 147.281 151.01 144.48 L 151.009 144.48 Z M 173.97 500.64 L 149.888 454.718 C 146.529 448.558 140.369 444.64 133.087 444.64 L 131.407 444.64 L 79.887 449.121 L 152.129 319.201 C 154.93 330.4 158.848 342.162 169.488 350.002 C 182.929 359.521 198.609 357.841 211.488 356.72 C 217.09 356.162 224.929 355.041 227.726 356.162 C 230.527 357.283 236.125 361.763 240.046 365.681 C 241.726 367.361 243.406 369.041 245.648 370.72 L 173.97 500.64 Z M 425.41 445.199 C 417.57 444.64 410.851 448.558 407.488 455.277 L 383.968 501.199 L 311.73 370.159 C 313.41 368.479 315.652 366.8 317.332 365.12 C 321.254 361.761 326.851 356.722 329.652 355.6 C 333.011 354.479 340.293 355.6 345.89 356.159 C 358.769 357.28 375.011 359.518 387.89 349.44 C 398.531 341.6 403.011 329.28 405.249 318.639 L 476.929 449.119 L 425.41 445.199 Z" style="fill: url(#gradient-4);"/>
  </g>
  <g transform="matrix(0.048838, 0, 0, -0.048838, 172.542023, 343.330963)" fill="#000000" stroke="none" style="">
    <path d="M1808 4836 c-99 -36 -175 -102 -225 -198 l-28 -53 0 -745 0 -745 28 -53 c40 -76 97 -134 169 -173 l63 -34 188 -3 187 -4 0 334 c0 367 4 398 62 518 48 99 162 209 269 259 46 22 111 44 143 50 37 7 222 11 483 11 l424 0 -3 293 -3 292 -34 63 c-39 71 -107 138 -178 173 l-48 24 -730 2 c-584 2 -737 0 -767 -11z" style="fill: url(#gradient-1);"/>
    <path d="M2700 3779 c-112 -22 -217 -107 -268 -217 l-27 -57 -3 -497 -3 -497 453 -3 c433 -4 456 -5 518 -26 184 -61 331 -209 392 -392 20 -60 22 -90 26 -412 l4 -348 347 0 c208 0 371 4 406 11 118 22 218 98 272 207 l28 57 0 955 0 955 -28 57 c-54 111 -152 185 -272 207 -72 13 -1777 13 -1845 0z" style="fill: url(#gradient-3);"/>
    <path d="M525 3020 c-111 -37 -194 -116 -235 -226 -17 -47 -20 -78 -20 -228 0 -195 10 -244 63 -323 47 -67 119 -119 200 -144 59 -19 87 -21 240 -17 172 3 173 3 239 36 83 40 158 119 190 200 21 52 23 72 23 242 0 170 -2 190 -23 242 -32 81 -107 160 -190 200 l-67 33 -180 2 c-157 3 -188 0 -240 -17z" style="fill: url(#gradient-0);"/>
    <path d="M1808 2276 c-99 -36 -175 -102 -225 -198 l-28 -53 0 -745 0 -745 28 -53 c40 -76 97 -134 169 -173 l63 -34 740 0 740 0 66 32 c79 39 140 102 177 181 l27 57 0 740 0 740 -34 63 c-39 71 -107 138 -178 173 l-48 24 -730 2 c-584 2 -737 0 -767 -11z" style="fill: url(#gradient-2);"/>
  </g>
</svg>