<?xml version="1.0" encoding="utf-8"?>
<svg viewBox="0 0 600 600" xmlns="http://www.w3.org/2000/svg">
  <defs>
    <linearGradient gradientUnits="userSpaceOnUse" x1="350.004" y1="14.17" x2="350.004" y2="545.84" id="gradient_green" gradientTransform="matrix(1, 0, 0, 1, -46.191573, 14.009261)">
      <stop offset="0" style="stop-color: rgba(148, 240, 156, 1)"/>
      <stop offset="1" style="stop-color: rgba(59, 227, 73, 1)"/>
    </linearGradient>
    <linearGradient gradientUnits="userSpaceOnUse" x1="2563" y1="2828" x2="2563" y2="4847.686" id="gradient-1">
      <stop offset="0" style="stop-color: rgba(163, 232, 249, 1)"/>
      <stop offset="1" style="stop-color: rgba(67, 208, 243, 1)"/>
    </linearGradient>
    <linearGradient gradientUnits="userSpaceOnUse" x1="3622" y1="1330" x2="3622" y2="3788.75" id="gradient-3">
      <stop offset="0" style="stop-color: rgba(249, 235, 143, 1)"/>
      <stop offset="1" style="stop-color: rgba(244, 217, 46, 1)"/>
    </linearGradient>
    <linearGradient gradientUnits="userSpaceOnUse" x1="747.5" y1="2080.289" x2="747.5" y2="3038.024" id="gradient-4">
      <stop offset="0" style="stop-color: rgba(96, 113, 219, 1)"/>
      <stop offset="1" style="stop-color: rgba(39, 57, 174, 1)"/>
    </linearGradient>
    <linearGradient gradientUnits="userSpaceOnUse" x1="2560" y1="275" x2="2560" y2="2287.686" id="gradient-2">
      <stop offset="0" style="stop-color: rgba(243, 126, 90, 1)"/>
      <stop offset="1" style="stop-color: rgba(215, 62, 16, 1)"/>
    </linearGradient>
  </defs>
  <g>
    <path d="M 37.976 225.109 L 37.976 105.389 C 37.976 84.143 46.656 64.838 60.644 50.85 C 74.632 36.866 93.941 28.182 115.183 28.182 L 234.903 28.182 L 234.903 55.127 L 115.183 55.127 C 101.378 55.127 88.812 60.787 79.699 69.904 C 70.586 79.017 64.922 91.584 64.922 105.388 L 64.922 225.108 L 37.976 225.109 Z M 372.717 28.179 L 492.437 28.179 C 513.683 28.179 532.988 36.863 546.976 50.847 C 560.96 64.835 569.644 84.144 569.644 105.386 L 569.644 225.106 L 542.699 225.106 L 542.699 105.386 C 542.699 91.581 537.039 79.015 527.922 69.902 C 518.809 60.789 506.242 55.125 492.438 55.125 L 372.718 55.125 L 372.717 28.179 Z M 569.647 362.919 L 569.647 482.639 C 569.647 503.885 560.964 523.19 546.979 537.178 C 532.991 551.162 513.682 559.846 492.44 559.846 L 372.72 559.846 L 372.72 532.901 L 492.44 532.901 C 506.245 532.901 518.811 527.241 527.924 518.124 C 537.038 509.011 542.701 496.444 542.701 482.64 L 542.701 362.92 L 569.647 362.919 Z M 234.917 559.849 L 115.197 559.849 C 93.951 559.849 74.646 551.165 60.658 537.181 C 46.67 523.193 37.99 503.884 37.99 482.642 L 37.99 362.922 L 64.935 362.922 L 64.935 482.642 C 64.935 496.447 70.595 509.013 79.712 518.126 C 88.826 527.239 101.392 532.903 115.196 532.903 L 234.916 532.903 L 234.917 559.849 Z" style="fill: url(#gradient_green);"/>
    <g transform="matrix(0.080296, 0, 0, -0.080296, 93.060318, 502.987305)" fill="#000000" stroke="none" style="">
      <path d="M1808 4836 c-99 -36 -175 -102 -225 -198 l-28 -53 0 -745 0 -745 28 -53 c40 -76 97 -134 169 -173 l63 -34 188 -3 187 -4 0 334 c0 367 4 398 62 518 48 99 162 209 269 259 46 22 111 44 143 50 37 7 222 11 483 11 l424 0 -3 293 -3 292 -34 63 c-39 71 -107 138 -178 173 l-48 24 -730 2 c-584 2 -737 0 -767 -11z" style="fill: url(#gradient-1);"/>
      <path d="M2700 3779 c-112 -22 -217 -107 -268 -217 l-27 -57 -3 -497 -3 -497 453 -3 c433 -4 456 -5 518 -26 184 -61 331 -209 392 -392 20 -60 22 -90 26 -412 l4 -348 347 0 c208 0 371 4 406 11 118 22 218 98 272 207 l28 57 0 955 0 955 -28 57 c-54 111 -152 185 -272 207 -72 13 -1777 13 -1845 0z" style="fill: url(#gradient-3);"/>
      <path d="M525 3020 c-111 -37 -194 -116 -235 -226 -17 -47 -20 -78 -20 -228 0 -195 10 -244 63 -323 47 -67 119 -119 200 -144 59 -19 87 -21 240 -17 172 3 173 3 239 36 83 40 158 119 190 200 21 52 23 72 23 242 0 170 -2 190 -23 242 -32 81 -107 160 -190 200 l-67 33 -180 2 c-157 3 -188 0 -240 -17z" style="fill: url(#gradient-4);"/>
      <path d="M1808 2276 c-99 -36 -175 -102 -225 -198 l-28 -53 0 -745 0 -745 28 -53 c40 -76 97 -134 169 -173 l63 -34 740 0 740 0 66 32 c79 39 140 102 177 181 l27 57 0 740 0 740 -34 63 c-39 71 -107 138 -178 173 l-48 24 -730 2 c-584 2 -737 0 -767 -11z" style="fill: url(#gradient-2);"/>
    </g>
  </g>
</svg>